<?xml version="1.0" encoding="utf-8"?>
<!-- Generator: Adobe Illustrator 16.0.0, SVG Export Plug-In . SVG Version: 6.00 Build 0)  -->
<!DOCTYPE svg PUBLIC "-//W3C//DTD SVG 1.1//EN" "http://www.w3.org/Graphics/SVG/1.1/DTD/svg11.dtd">
<svg version="1.1" id="Layer_1" xmlns="http://www.w3.org/2000/svg" xmlns:xlink="http://www.w3.org/1999/xlink" x="0px" y="0px"
	 width="1100px" height="400px" viewBox="0 0 1100 400" enable-background="new 0 0 1100 400" xml:space="preserve">
<g id="group_7">
	<g>
		<path fill="#FFF5DF" d="M838.788,188.283c-2.477,0.904-5.885,1.623-9.426,1.623c-4.687,0-9.08-0.611-11.236-0.611
			c-3.303,0-5.486,2.822-6.311,5.725h0.958c0.532-1.918,1.97-2.584,2.956-2.584c0.639,0,2.316,0.24,4.5,0.426l-1.998,7.617
			c-0.904,3.408-2.449,7.375-5.165,7.375c-0.958,0-2.263-0.932-1.731-2.875h-0.958c-0.799,2.955-1.198,5.645,2.104,5.645
			c4.394,0,5.698-5.113,7.083-10.279l1.971-7.375c1.917,0.186,4.047,0.346,6.07,0.346h1.252l-4.474,16.59h4.554
			c0,0,0.719-5.352,1.971-9.959l1.811-6.844c1.971-0.186,3.674-0.426,4.979-0.719L838.788,188.283"/>
		<path fill="#FFF5DF" d="M848.573,220.607v-0.531c-3.062-0.055-3.701-0.4-3.701-2.104v-21.275l-0.318-0.055l-7.004,3.223v0.479
			c0.453-0.158,0.879-0.318,1.065-0.371c0.692-0.268,1.331-0.4,1.73-0.4c0.825,0,1.172,0.533,1.172,1.678v16.057
			c0,1.172-0.293,1.971-0.933,2.289c-0.586,0.32-1.117,0.426-2.742,0.48v0.531H848.573"/>
		<path fill="#FFF5DF" d="M858.864,215.895c0-1.117-0.879-1.996-1.971-1.996s-1.998,0.879-1.998,1.996
			c0,1.092,0.906,1.971,1.998,1.971S858.864,216.986,858.864,215.895 M858.864,207.588c0-1.092-0.879-1.998-1.971-1.998
			s-1.998,0.906-1.998,1.998s0.906,1.996,1.998,1.996S858.864,208.68,858.864,207.588z"/>
		<path fill="#FFF5DF" d="M890.179,198.002v-0.561h-8.655v0.561l1.065,0.105c0.905,0.08,1.305,0.293,1.305,0.693
			c0,0.852-2.13,2.715-5.592,4.953l-5.938,3.754l2.077-6.871c0.559-1.783,1.624-2.475,3.914-2.635v-0.561h-10.624v0.561
			c2.449,0.238,2.982,0.506,2.982,1.543c0,0.533-0.107,1.227-0.427,2.184l-4.794,15.684c-0.719,2.131-0.879,2.291-3.195,2.609v0.586
			h9.693v-0.586c-2.477-0.238-2.85-0.451-2.85-1.543c0-0.4,0.054-0.639,0.32-1.385l0.266-0.746l2.396-8.094l4.713,7.375
			c0.932,1.465,1.492,2.717,1.492,3.381c0,0.533-0.561,0.799-1.812,0.906l-1.118,0.105v0.586h10.73v-0.586
			c-2.449-0.213-2.688-0.318-3.781-1.969l-6.789-10.758l11.716-8.016C888.394,198.561,889.245,198.162,890.179,198.002"/>
	</g>
	<g>
		<defs>
			<rect id="SVGID_1_" x="1037.5" y="187.5" width="25" height="23"/>
		</defs>
		<clipPath id="SVGID_2_">
			<use xlink:href="#SVGID_1_"  overflow="visible"/>
		</clipPath>
		<path clip-path="url(#SVGID_2_)" fill="#FFF5DF" d="M1062.316,188.719h-3.914l-3.168,6.896c-0.133-3.889-0.692-7.615-4.395-7.615
			c-4.393,0-9.318,4.738-11.183,11.635c-1.491,5.486-0.106,10.225,5.964,10.225c2.211,0,5.219-1.037,8.096-4.5
			c-0.24,2.211-0.347,4.5,1.73,4.5c2.529,0,4.26-3.248,4.74-5.592h-0.933c-0.745,1.918-1.464,2.77-2.769,2.77
			c-0.959,0-0.959-1.73-1.039-4.074c0.666-0.984,1.198-1.996,1.704-3.195L1062.316,188.719 M1053.902,198.33
			c-2.875,5.805-5.725,10.252-8.174,10.252c-3.249,0-2.822-5.697-1.998-8.707c1.146-4.367,3.969-10.57,6.791-10.57
			C1053.424,189.305,1053.85,193.592,1053.902,198.33z"/>
	</g>
	<g>
		<defs>
			<rect id="SVGID_3_" x="229.5" y="277.5" width="41" height="33"/>
		</defs>
		<clipPath id="SVGID_4_">
			<use xlink:href="#SVGID_3_"  overflow="visible"/>
		</clipPath>
		<path clip-path="url(#SVGID_4_)" fill="#FFF5DF" d="M246.009,289.412c-1.118,4.207-3.302,9.32-7.615,9.32
			c-3.781,0-3.675-5.113-2.583-9.32c1.065-3.781,2.583-7.189,7.136-7.189h2.529C246.328,283.182,247.154,285.285,246.009,289.412
			 M254.956,277.67c-2.503,0.932-6.896,1.623-10.332,1.623c-6.364,0-11.157,3.701-13.074,10.865
			c-1.465,5.512,1.118,9.852,6.523,9.852c5.432,0,10.332-4.34,11.796-9.852c1.012-3.781,0.187-6.445-1.864-8.068
			c2.503,0,3.781-0.107,5.885-0.453L254.956,277.67z"/>
		<path clip-path="url(#SVGID_4_)" fill="#FFF5DF" d="M269.92,289.146c0-1.012-0.905-1.945-1.944-1.945
			c-1.065,0-1.837,0.773-1.837,1.891c0,1.119,0.746,1.865,1.891,1.865C269.015,290.957,269.92,290.158,269.92,289.146
			 M268.349,306.348l-0.532-0.4c-1.678,2.023-2.53,2.77-3.195,2.77c-0.32,0-0.639-0.24-0.639-0.533c0-0.559,0.373-1.623,0.639-2.342
			l3.435-11.396l-0.106-0.08c-3.967,0.666-4.766,0.771-6.23,0.879v0.586c2.077,0.025,2.423,0.133,2.423,0.852
			c0,0.266-0.106,0.879-0.346,1.545l-1.864,6.283c-0.612,2.131-0.852,3.143-0.852,3.861c0,1.305,0.639,2.023,1.811,2.023
			C264.675,310.395,266.112,309.33,268.349,306.348z"/>
	</g>
	<g>
		<defs>
			<rect id="SVGID_5_" x="219.5" y="98" width="61" height="32"/>
		</defs>
		<clipPath id="SVGID_6_">
			<use xlink:href="#SVGID_5_"  overflow="visible"/>
		</clipPath>
		<path clip-path="url(#SVGID_6_)" fill="#FFF5DF" d="M245.249,113.865h-0.905c-0.533,1.971-1.891,2.875-2.876,2.875
			c-1.198,0-1.384-1.332-0.666-3.967l3.808-14.354h-3.861l-3.728,14.008c-1.118,2.262-3.461,5.75-6.044,5.75
			c-1.997,0-3.728-1.518-2.609-5.592l3.754-14.166h-3.861l-8.122,30.383h4.58c0,0,0.719-5.406,1.971-10.039
			c0,0,0.133-0.531,0.239-0.771c0.267,1.197,2.343,1.49,3.382,1.49c2.583,0,4.313-1.891,6.125-3.834
			c-0.24,2.291,0.532,3.834,2.689,3.834C242.426,119.482,244.423,116.848,245.249,113.865"/>
		<path clip-path="url(#SVGID_6_)" fill="#FFF5DF" d="M267.429,114.902v-0.584h-7.136v0.584h0.612c0.985,0,1.518,0.24,1.518,0.641
			c0,0.691-1.917,2.396-5.565,4.951l-1.651,1.172l4.66-16.215l-0.213-0.16c-2.29,0.453-3.754,0.691-6.044,0.959v0.559h0.639
			c1.332,0,1.917,0.24,1.971,0.879c-0.053,0.611-0.267,1.545-0.852,3.195l-0.346,1.172l-0.08,0.318l-4.953,17.121h2.929l1.891-6.363
			l1.625-1.145c0.639,1.57,1.651,3.754,2.343,5.006c1.251,2.236,1.944,2.902,3.089,2.902c1.571,0,2.529-0.879,4.313-3.861
			l-0.586-0.398c-0.186,0.318-0.399,0.639-0.559,0.932c-0.719,1.092-1.171,1.49-1.784,1.49c-0.825,0-1.598-1.145-3.168-4.58
			l-1.411-3.115C264.394,115.701,265.592,115.01,267.429,114.902"/>
		<path clip-path="url(#SVGID_6_)" fill="#FFF5DF" d="M279.545,108.646c0-1.012-0.933-1.945-1.971-1.945
			c-1.065,0-1.837,0.773-1.837,1.891c0,1.119,0.745,1.865,1.891,1.865C278.612,110.457,279.545,109.658,279.545,108.646
			 M277.947,125.848l-0.532-0.4c-1.678,2.023-2.53,2.77-3.195,2.77c-0.32,0-0.64-0.24-0.64-0.533c0-0.559,0.399-1.623,0.64-2.342
			l3.435-11.396l-0.106-0.08c-3.968,0.666-4.74,0.771-6.23,0.879v0.586c2.076,0.025,2.422,0.133,2.422,0.852
			c0,0.266-0.105,0.879-0.346,1.545l-1.863,6.283c-0.613,2.131-0.853,3.143-0.853,3.861c0,1.305,0.64,2.023,1.811,2.023
			C274.272,129.895,275.71,128.83,277.947,125.848z"/>
	</g>
	<g>
		<defs>
			<rect id="SVGID_7_" x="25.5" y="38.5" width="49" height="32"/>
		</defs>
		<clipPath id="SVGID_8_">
			<use xlink:href="#SVGID_7_"  overflow="visible"/>
		</clipPath>
		<path clip-path="url(#SVGID_8_)" fill="#FFF5DF" d="M51.249,54.363h-0.906c-0.532,1.971-1.89,2.875-2.875,2.875
			c-1.198,0-1.384-1.33-0.666-3.967l3.808-14.352h-3.861l-3.728,14.006c-1.118,2.264-3.461,5.752-6.044,5.752
			c-1.997,0-3.728-1.518-2.609-5.592l3.754-14.166H34.26l-8.122,30.381h4.58c0,0,0.719-5.404,1.971-10.037
			c0,0,0.133-0.533,0.239-0.773c0.267,1.199,2.343,1.492,3.382,1.492c2.583,0,4.313-1.891,6.125-3.836
			c-0.24,2.291,0.532,3.836,2.689,3.836C48.426,59.982,50.423,57.346,51.249,54.363"/>
		<path clip-path="url(#SVGID_8_)" fill="#FFF5DF" d="M70.287,58.357c0,7.43-1.704,11.211-5.086,11.211
			c-3.354,0-5.06-3.781-5.06-11.158c0-7.508,1.758-11.449,5.086-11.449C68.53,46.961,70.287,50.955,70.287,58.357 M74.042,58.305
			c0-7.27-3.542-12.275-8.707-12.275c-2.104,0-3.755,0.611-5.193,1.838c-2.289,1.996-3.754,6.07-3.754,10.225
			c0,3.859,1.305,8.014,3.115,9.984c1.438,1.572,3.436,2.424,5.698,2.424c1.997,0,3.647-0.613,5.086-1.838
			C72.55,66.691,74.042,62.592,74.042,58.305z"/>
	</g>
	<g>
		<defs>
			<rect id="SVGID_9_" x="25.5" y="138" width="49" height="33"/>
		</defs>
		<clipPath id="SVGID_10_">
			<use xlink:href="#SVGID_9_"  overflow="visible"/>
		</clipPath>
		<path clip-path="url(#SVGID_10_)" fill="#FFF5DF" d="M50.769,141.043c0.373-1.33-0.532-2.342-1.97-2.342
			c-1.491,0-2.21,0.611-3.834,1.811l-11.556,8.574l1.704-6.498c0.533-1.971-0.799-3.887-2.956-3.887
			c-3.302,0-5.272,2.689-6.018,5.592h0.905c0.506-1.918,1.864-2.822,2.823-2.822c1.225,0,1.518,0.664,0.666,3.939l-3.888,14.379
			h3.888l2.396-8.973l1.438-1.066l1.891,7.217c0.586,2.156,3.168,3.516,5.885,3.516c2.796,0,4.26-1.012,4.606-2.344
			c0.319-1.119-0.479-1.971-1.332-1.971c-1.917,0-2.45,1.811-3.701,1.811c-0.799,0-1.73-3.143-2.104-4.74l-1.571-6.15l4.873-3.594
			c1.438-1.066,1.971-1.066,2.876-1.066c0.532,0,1.145,0.586,2.237,0.586C49.172,143.014,50.477,142.189,50.769,141.043"/>
		<path clip-path="url(#SVGID_10_)" fill="#FFF5DF" d="M69.888,158.857c0,7.43-1.704,11.211-5.086,11.211
			c-3.355,0-5.059-3.781-5.059-11.158c0-7.508,1.757-11.449,5.086-11.449C68.13,147.461,69.888,151.455,69.888,158.857
			 M73.642,158.805c0-7.27-3.568-12.275-8.707-12.275c-2.104,0-3.754,0.611-5.192,1.838c-2.29,1.996-3.754,6.07-3.754,10.225
			c0,3.859,1.305,8.014,3.115,9.984c1.438,1.572,3.435,2.424,5.698,2.424c1.997,0,3.648-0.613,5.086-1.838
			C72.151,167.191,73.642,163.092,73.642,158.805z"/>
	</g>
	<g>
		<defs>
			<rect id="SVGID_11_" x="28.5" y="237.5" width="43" height="33"/>
		</defs>
		<clipPath id="SVGID_12_">
			<use xlink:href="#SVGID_11_"  overflow="visible"/>
		</clipPath>
		<path clip-path="url(#SVGID_12_)" fill="#FFF5DF" d="M45.568,242.168c0,4.021-2.45,9.666-5.698,13.207
			c-1.145,1.305-2.77,2.104-4.154,2.104c-1.73,0-2.796-1.332-2.796-3.541c0-2.584,1.678-7.27,3.702-10.279
			c1.997-2.928,4.26-4.553,6.257-4.393C44.503,239.346,45.568,240.49,45.568,242.168 M50.867,254.523l-0.559-0.48l-1.358,1.332
			c-1.464,1.545-2.05,1.971-2.476,1.971c-0.399,0-0.666-0.293-0.666-0.639c0-0.959,1.997-9.188,4.261-17.361
			c0.133-0.48,0.186-0.559,0.266-0.986l-0.319-0.158l-2.929,0.346l-0.133,0.133l-0.532,2.291c-0.373-1.758-1.758-2.77-3.834-2.77
			c-6.364,0-13.687,8.707-13.687,16.322c0,3.355,1.837,5.299,4.899,5.299c3.355,0,5.405-1.572,9.612-7.51
			c-1.012,3.914-1.118,4.314-1.118,5.512c0,1.385,0.586,1.945,1.917,1.945C46.127,259.77,47.272,258.863,50.867,254.523z"/>
		<path clip-path="url(#SVGID_12_)" fill="#FFF5DF" d="M67.163,258.357c0,7.43-1.678,11.211-5.059,11.211
			c-3.355,0-5.06-3.781-5.06-11.158c0-7.508,1.758-11.449,5.086-11.449C65.432,246.961,67.163,250.955,67.163,258.357
			 M70.944,258.305c0-7.27-3.568-12.275-8.708-12.275c-2.13,0-3.754,0.611-5.192,1.838c-2.29,1.996-3.781,6.07-3.781,10.225
			c0,3.859,1.331,8.014,3.142,9.984c1.438,1.572,3.435,2.424,5.698,2.424c1.997,0,3.648-0.613,5.059-1.838
			C69.453,266.691,70.944,262.592,70.944,258.305z"/>
	</g>
	<g>
		<defs>
			<rect id="SVGID_13_" x="28.5" y="326" width="43" height="45"/>
		</defs>
		<clipPath id="SVGID_14_">
			<use xlink:href="#SVGID_13_"  overflow="visible"/>
		</clipPath>
		<path clip-path="url(#SVGID_14_)" fill="#FFF5DF" d="M46.66,344.559c0,3.168-2.396,8.281-5.272,11.236
			c-1.757,1.838-3.808,2.822-5.885,2.822c-1.464,0-2.183-0.506-2.183-1.623c0-2.877,1.438-7.457,3.435-11.051
			c2.104-3.676,4.261-5.486,6.55-5.486C45.409,340.457,46.66,342.029,46.66,344.559 M50.734,343.84c0-3.355-2.343-5.725-5.565-5.725
			c-3.329,0-5.832,1.943-9.213,7.215l4.953-18.559l-0.239-0.24c-2.37,0.426-4.101,0.719-7.296,1.092v0.826
			c2.822,0.08,3.088,0.238,3.088,1.277c0,0.426-0.08,0.959-0.426,2.051l-0.24,0.932l-0.08,0.32l-6.523,23.965v0.186
			c0,1.119,3.648,2.557,6.364,2.557C42.799,359.736,50.734,351.402,50.734,343.84z"/>
		<path clip-path="url(#SVGID_14_)" fill="#FFF5DF" d="M67.163,358.271c0,7.402-1.678,11.211-5.059,11.211
			c-3.355,0-5.06-3.809-5.06-11.184c0-7.51,1.758-11.451,5.086-11.451C65.432,346.848,67.163,350.869,67.163,358.271
			 M70.944,358.191c0-7.27-3.568-12.248-8.708-12.248c-2.13,0-3.754,0.586-5.192,1.836c-2.29,1.971-3.781,6.072-3.781,10.199
			c0,3.861,1.331,8.016,3.142,10.012c1.438,1.545,3.435,2.396,5.698,2.396c1.997,0,3.648-0.586,5.059-1.838
			C69.453,366.605,70.944,362.479,70.944,358.191z"/>
	</g>
	<path fill="none" stroke="#FFF5DF" stroke-width="3" stroke-miterlimit="10" d="M900,200c0,27.619-22.381,50-50,50
		s-50-22.381-50-50s22.381-50,50-50S900,172.381,900,200z"/>
	<circle fill="none" stroke="#FFF5DF" stroke-width="3" stroke-miterlimit="10" cx="1050" cy="200" r="40"/>
	<g>
		<defs>
			<rect id="SVGID_15_" x="506" y="348" width="35" height="33"/>
		</defs>
		<clipPath id="SVGID_16_">
			<use xlink:href="#SVGID_15_"  overflow="visible"/>
		</clipPath>
		<path clip-path="url(#SVGID_16_)" fill="#FFF5DF" d="M534.785,360.684c0,5.219-2.023,10.518-5.272,13.766
			c-2.822,2.877-6.684,4.314-11.662,4.314c-2.211,0-3.115-0.533-3.115-1.758c0-0.639,0.239-1.598,1.038-4.553l5.805-20.664
			c0.293-1.064,0.958-1.383,2.902-1.383c2.689,0,5.032,0.611,6.577,1.676C533.426,353.76,534.785,356.85,534.785,360.684
			 M540.083,361.828c0-7.855-5.458-12.861-13.952-12.861h-13.314v0.773c3.01,0.266,3.675,0.666,3.675,1.943
			c0,0.719-0.187,1.863-0.506,3.062l-5.885,21.143c-0.878,2.768-1.198,3.061-3.888,3.541v0.771h12.115
			c5.433,0,10.465-1.438,14.113-3.967C537.208,372.879,540.083,367.473,540.083,361.828z"/>
	</g>
	<circle fill="none" stroke="#FFF5DF" stroke-width="3" stroke-miterlimit="10" cx="450" cy="200" r="40"/>
	<g opacity="0.3">
		<path fill="#FFF5DF" d="M440.641,238.888c1.102,0.265,2.219,0.491,3.354,0.662l43.821-52.585
			c-0.374-1.084-0.792-2.146-1.253-3.184L440.641,238.888z"/>
		<path fill="#FFF5DF" d="M428.355,233.63c0.85,0.548,1.715,1.073,2.608,1.558l50.205-60.246c-0.636-0.791-1.302-1.555-1.995-2.293
			L428.355,233.63z"/>
		<path fill="#FFF5DF" d="M461.75,238.243l27.968-33.562c0.179-1.537,0.282-3.097,0.282-4.682c0-0.112-0.007-0.222-0.008-0.334
			l-33.11,39.732C458.542,239.11,460.168,238.729,461.75,238.243z"/>
		<path fill="#FFF5DF" d="M423.261,229.744c0.743,0.668,1.516,1.305,2.308,1.917l51.171-61.405
			c-0.743-0.668-1.515-1.305-2.308-1.918L423.261,229.744z"/>
		<path fill="#FFF5DF" d="M448.088,239.951c0.634,0.03,1.271,0.049,1.912,0.049c0.669,0,1.334-0.018,1.995-0.051l37.653-45.184
			c-0.17-1.305-0.403-2.588-0.697-3.85L448.088,239.951z"/>
		<path fill="#FFF5DF" d="M468.491,235.467c3.961-2.069,7.531-4.782,10.574-8.001l3.247-3.896c2.585-3.538,4.607-7.512,5.924-11.797
			L468.491,235.467z"/>
		<path fill="#FFF5DF" d="M434.118,236.716c0.966,0.418,1.954,0.795,2.958,1.138l47.826-57.392
			c-0.518-0.923-1.066-1.827-1.653-2.702L434.118,236.716z"/>
		<path fill="#FFF5DF" d="M459.359,161.112c-1.102-0.265-2.219-0.491-3.354-0.663l-43.821,52.586
			c0.374,1.083,0.792,2.146,1.253,3.185L459.359,161.112z"/>
		<path fill="#FFF5DF" d="M465.882,163.285c-0.966-0.419-1.954-0.796-2.958-1.139l-47.826,57.392
			c0.518,0.923,1.066,1.827,1.653,2.703L465.882,163.285z"/>
		<path fill="#FFF5DF" d="M451.913,160.049c-0.634-0.03-1.271-0.049-1.913-0.049c-0.669,0-1.334,0.018-1.995,0.051l-37.653,45.184
			c0.17,1.305,0.404,2.589,0.697,3.851L451.913,160.049z"/>
		<path fill="#FFF5DF" d="M438.25,161.758l-27.968,33.561C410.103,196.855,410,198.415,410,200c0,0.112,0.007,0.222,0.008,0.334
			l33.11-39.732C441.458,160.89,439.832,161.271,438.25,161.758z"/>
		<path fill="#FFF5DF" d="M418.832,225.059c0.636,0.79,1.302,1.554,1.995,2.293l50.818-60.982c-0.85-0.547-1.715-1.072-2.608-1.557
			L418.832,225.059z"/>
		<path fill="#FFF5DF" d="M431.509,164.533c-3.962,2.07-7.532,4.783-10.575,8.003l-3.245,3.894
			c-2.585,3.537-4.607,7.512-5.925,11.798L431.509,164.533z"/>
	</g>
	<g opacity="0.3">
		<path fill="#FFF5DF" d="M640.641,238.888c1.102,0.265,2.219,0.491,3.354,0.662l43.821-52.585
			c-0.374-1.084-0.792-2.146-1.253-3.184L640.641,238.888z"/>
		<path fill="#FFF5DF" d="M628.355,233.63c0.85,0.548,1.715,1.073,2.608,1.558l50.205-60.246c-0.636-0.791-1.302-1.555-1.995-2.293
			L628.355,233.63z"/>
		<path fill="#FFF5DF" d="M661.75,238.243l27.968-33.562c0.179-1.537,0.282-3.097,0.282-4.682c0-0.112-0.007-0.222-0.008-0.334
			l-33.11,39.732C658.542,239.11,660.168,238.729,661.75,238.243z"/>
		<path fill="#FFF5DF" d="M623.261,229.744c0.743,0.668,1.516,1.305,2.308,1.917l51.171-61.405
			c-0.743-0.668-1.515-1.305-2.308-1.918L623.261,229.744z"/>
		<path fill="#FFF5DF" d="M648.088,239.951c0.634,0.03,1.271,0.049,1.912,0.049c0.669,0,1.334-0.018,1.995-0.051l37.653-45.184
			c-0.17-1.305-0.403-2.588-0.697-3.85L648.088,239.951z"/>
		<path fill="#FFF5DF" d="M668.491,235.467c3.961-2.069,7.531-4.782,10.574-8.001l3.247-3.896c2.585-3.538,4.607-7.512,5.924-11.797
			L668.491,235.467z"/>
		<path fill="#FFF5DF" d="M634.118,236.716c0.966,0.418,1.954,0.795,2.958,1.138l47.826-57.392
			c-0.518-0.923-1.066-1.827-1.653-2.702L634.118,236.716z"/>
		<path fill="#FFF5DF" d="M659.359,161.112c-1.102-0.265-2.219-0.491-3.354-0.663l-43.821,52.586
			c0.374,1.083,0.792,2.146,1.253,3.185L659.359,161.112z"/>
		<path fill="#FFF5DF" d="M665.882,163.285c-0.966-0.419-1.954-0.796-2.958-1.139l-47.826,57.392
			c0.518,0.923,1.066,1.827,1.653,2.703L665.882,163.285z"/>
		<path fill="#FFF5DF" d="M651.913,160.049c-0.634-0.03-1.271-0.049-1.913-0.049c-0.669,0-1.334,0.018-1.995,0.051l-37.653,45.184
			c0.17,1.305,0.404,2.589,0.697,3.851L651.913,160.049z"/>
		<path fill="#FFF5DF" d="M638.25,161.758l-27.968,33.561C610.103,196.855,610,198.415,610,200c0,0.112,0.007,0.222,0.008,0.334
			l33.11-39.732C641.458,160.89,639.832,161.271,638.25,161.758z"/>
		<path fill="#FFF5DF" d="M618.832,225.059c0.636,0.79,1.302,1.554,1.995,2.293l50.818-60.982c-0.85-0.547-1.715-1.072-2.608-1.557
			L618.832,225.059z"/>
		<path fill="#FFF5DF" d="M631.509,164.533c-3.962,2.07-7.532,4.783-10.575,8.003l-3.245,3.894
			c-2.585,3.537-4.607,7.512-5.925,11.798L631.509,164.533z"/>
	</g>
	<g opacity="0.3">
		<path fill="#FFF5DF" d="M1040.641,238.888c1.102,0.265,2.219,0.491,3.354,0.662l43.822-52.585
			c-0.374-1.084-0.792-2.146-1.254-3.184L1040.641,238.888z"/>
		<path fill="#FFF5DF" d="M1028.355,233.63c0.85,0.548,1.715,1.073,2.607,1.558l50.205-60.246c-0.635-0.791-1.301-1.555-1.994-2.293
			L1028.355,233.63z"/>
		<path fill="#FFF5DF" d="M1061.75,238.243l27.969-33.562c0.179-1.537,0.281-3.097,0.281-4.682c0-0.112-0.008-0.222-0.008-0.334
			l-33.11,39.732C1058.541,239.11,1060.168,238.729,1061.75,238.243z"/>
		<path fill="#FFF5DF" d="M1023.261,229.744c0.743,0.668,1.516,1.305,2.308,1.917l51.171-61.405
			c-0.743-0.668-1.515-1.305-2.308-1.918L1023.261,229.744z"/>
		<path fill="#FFF5DF" d="M1048.088,239.951c0.634,0.03,1.271,0.049,1.912,0.049c0.669,0,1.334-0.018,1.994-0.051l37.654-45.184
			c-0.171-1.305-0.404-2.588-0.697-3.85L1048.088,239.951z"/>
		<path fill="#FFF5DF" d="M1068.491,235.467c3.962-2.069,7.53-4.782,10.574-8.001l3.247-3.896c2.584-3.538,4.606-7.512,5.924-11.797
			L1068.491,235.467z"/>
		<path fill="#FFF5DF" d="M1034.117,236.716c0.967,0.418,1.954,0.795,2.958,1.138l47.826-57.392
			c-0.519-0.923-1.066-1.827-1.653-2.702L1034.117,236.716z"/>
		<path fill="#FFF5DF" d="M1059.359,161.112c-1.102-0.265-2.219-0.491-3.354-0.663l-43.822,52.586
			c0.374,1.083,0.792,2.146,1.254,3.185L1059.359,161.112z"/>
		<path fill="#FFF5DF" d="M1065.883,163.285c-0.967-0.419-1.954-0.796-2.958-1.139l-47.826,57.392
			c0.519,0.923,1.066,1.827,1.653,2.703L1065.883,163.285z"/>
		<path fill="#FFF5DF" d="M1051.912,160.049c-0.634-0.03-1.271-0.049-1.912-0.049c-0.669,0-1.334,0.018-1.995,0.051l-37.653,45.184
			c0.171,1.305,0.404,2.589,0.697,3.851L1051.912,160.049z"/>
		<path fill="#FFF5DF" d="M1038.25,161.758l-27.969,33.561c-0.179,1.537-0.281,3.097-0.281,4.682c0,0.112,0.008,0.222,0.008,0.334
			l33.11-39.732C1041.459,160.89,1039.832,161.271,1038.25,161.758z"/>
		<path fill="#FFF5DF" d="M1018.832,225.059c0.635,0.79,1.301,1.554,1.994,2.293l50.818-60.982c-0.85-0.547-1.715-1.072-2.607-1.557
			L1018.832,225.059z"/>
		<path fill="#FFF5DF" d="M1031.509,164.533c-3.962,2.07-7.532,4.783-10.575,8.003l-3.244,3.894
			c-2.586,3.537-4.607,7.512-5.926,11.798L1031.509,164.533z"/>
	</g>
	<g>
		<defs>
			<rect id="SVGID_17_" x="630.5" y="187.5" width="39" height="33"/>
		</defs>
		<clipPath id="SVGID_18_">
			<use xlink:href="#SVGID_17_"  overflow="visible"/>
		</clipPath>
		<path clip-path="url(#SVGID_18_)" fill="#FFF5DF" d="M649.619,192.09c0-2.264-2.104-3.889-5.006-3.889
			c-7.189,0-13.873,6.977-13.873,14.459c0,4.527,2.583,7.162,7.03,7.162c3.595,0,6.125-1.438,9.027-5.111l-0.746-0.48
			c-2.636,2.822-4.5,3.861-6.843,3.861c-2.743,0-4.367-1.996-4.367-5.432c0-4.074,1.678-8.334,4.367-11.156
			c1.384-1.439,3.302-2.291,5.219-2.291c1.092,0,1.757,0.373,1.757,0.959c0,0.24-0.053,0.479-0.292,0.904
			c-0.32,0.613-0.426,0.906-0.426,1.385c0,1.146,0.719,1.811,1.864,1.811C648.687,194.271,649.619,193.367,649.619,192.09"/>
		<path clip-path="url(#SVGID_18_)" fill="#FFF5DF" d="M669.43,216.32l-0.533-0.48c-0.293,0.32-0.533,0.641-0.825,0.934
			c-1.119,1.305-1.837,1.891-2.37,1.891c-0.346,0-0.639-0.268-0.639-0.586c0-0.268,0.187-0.959,0.559-2.238l2.21-7.295
			c0.24-0.746,0.346-1.518,0.346-2.023c0-1.279-1.012-2.158-2.557-2.158c-2.503,0-4.953,2.158-8.947,7.803l2.583-7.723l-0.106-0.08
			l-6.311,1.092v0.586c1.97,0.027,2.476,0.24,2.476,0.959c0,0.213-0.026,0.4-0.08,0.586l-3.754,12.408h2.956
			c1.837-5.592,2.183-6.363,3.887-8.787c2.343-3.301,4.34-5.031,5.778-5.031c0.586,0,0.932,0.398,0.932,1.037
			c0,0.426-0.213,1.572-0.533,2.689l-1.73,5.832c-0.506,1.863-0.613,2.316-0.613,2.662c0,1.357,0.533,1.918,1.811,1.918
			C665.729,220.314,666.687,219.621,669.43,216.32"/>
	</g>
	<circle fill="none" stroke="#FFF5DF" stroke-width="3" stroke-miterlimit="10" cx="650" cy="200" r="40"/>
	<g>
		<path fill="#FEF200" d="M608.62,203c-0.071-0.992-0.12-1.99-0.12-3s0.049-2.008,0.12-3h-94.231l3.445-8.109L491.5,200
			l26.335,11.109L514.389,203H608.62z"/>
	</g>
	<circle fill="none" stroke="#FFF5DF" stroke-width="3" stroke-miterlimit="10" cx="250" cy="110" r="40"/>
	<circle fill="none" stroke="#FFF5DF" stroke-width="3" stroke-miterlimit="10" cx="250" cy="290" r="40"/>
	<g>
		<defs>
			<rect id="SVGID_19_" x="683.501" y="237.5" width="36.999" height="33"/>
		</defs>
		<clipPath id="SVGID_20_">
			<use xlink:href="#SVGID_19_"  overflow="visible"/>
		</clipPath>
		<path clip-path="url(#SVGID_20_)" fill="#FFF5DF" d="M719.873,239.238v-0.771h-9.506v0.771c2.715,0.24,3.328,0.719,3.328,2.424
			c0,0.586-0.08,1.117-0.426,2.104l-0.08,0.398l-4.9,18.16l-9.932-23.857h-7.72v0.771c2.262,0.188,3.273,0.799,4.127,2.662
			l-5.699,19.945c-1.811,6.123-2.183,6.709-4.926,7.082v0.773h9.48v-0.773c-2.504-0.186-3.355-0.719-3.355-2.051
			c0-0.611,0.133-1.57,0.426-2.582l5.459-20.184l10.995,26.309h0.879l6.871-24.072C716.678,240.197,716.863,239.904,719.873,239.238
			"/>
	</g>
	<rect x="370" y="120" fill="none" stroke="#FFF5DF" stroke-width="3" stroke-miterlimit="10" width="360" height="160"/>
	<g>
		<defs>
			<rect id="SVGID_21_" x="284.5" y="148" width="36" height="33"/>
		</defs>
		<clipPath id="SVGID_22_">
			<use xlink:href="#SVGID_21_"  overflow="visible"/>
		</clipPath>
		<path clip-path="url(#SVGID_22_)" fill="#FFF5DF" d="M319.649,149.74v-0.773h-10.625v0.773l1.278,0.133
			c1.145,0.105,1.624,0.373,1.624,0.904c0,1.146-2.609,3.676-6.87,6.711l-7.27,5.059l2.53-9.266
			c0.719-2.396,1.997-3.355,4.819-3.541v-0.773h-13.047v0.773c3.009,0.266,3.675,0.666,3.675,2.049c0,0.721-0.133,1.678-0.533,2.957
			l-5.885,21.143c-0.852,2.875-1.092,3.115-3.914,3.541v0.771h11.876v-0.771c-3.036-0.32-3.462-0.613-3.462-2.104
			c0-0.533,0.053-0.852,0.399-1.865l0.267-1.012l2.982-10.891l5.778,9.934c1.145,1.969,1.811,3.646,1.811,4.553
			c0,0.719-0.666,1.092-2.184,1.252l-1.384,0.133v0.771h13.154v-0.771c-3.009-0.293-3.302-0.426-4.66-2.664l-8.308-14.512
			l14.352-10.811C317.438,150.459,318.477,149.926,319.649,149.74"/>
	</g>
	<rect x="170" y="30" fill="none" stroke="#FFF5DF" stroke-width="3" stroke-miterlimit="10" width="160" height="160"/>
	<rect x="150" y="10" fill="none" stroke="#FFF5DF" stroke-width="3" stroke-miterlimit="10" width="400" height="380"/>
	<rect fill="none" width="1100" height="400"/>
	<circle fill="none" stroke="#FFF5DF" stroke-width="3" stroke-miterlimit="10" cx="50" cy="50" r="40"/>
	<g opacity="0.3">
		<path fill="#FFF5DF" d="M40.641,88.888c1.102,0.265,2.219,0.491,3.354,0.662l43.821-52.585c-0.374-1.084-0.792-2.146-1.253-3.184
			L40.641,88.888z"/>
		<path fill="#FFF5DF" d="M28.355,83.63c0.85,0.548,1.715,1.073,2.608,1.558l50.205-60.246c-0.636-0.791-1.302-1.555-1.995-2.293
			L28.355,83.63z"/>
		<path fill="#FFF5DF" d="M61.75,88.243l27.968-33.562C89.897,53.145,90,51.585,90,50c0-0.112-0.007-0.222-0.008-0.334
			l-33.11,39.732C58.542,89.11,60.168,88.729,61.75,88.243z"/>
		<path fill="#FFF5DF" d="M23.261,79.744c0.743,0.668,1.516,1.305,2.308,1.917l51.171-61.405c-0.743-0.668-1.515-1.305-2.308-1.918
			L23.261,79.744z"/>
		<path fill="#FFF5DF" d="M48.088,89.951C48.722,89.981,49.358,90,50,90c0.669,0,1.334-0.018,1.995-0.051l37.653-45.184
			c-0.17-1.305-0.403-2.588-0.697-3.85L48.088,89.951z"/>
		<path fill="#FFF5DF" d="M68.491,85.467c3.961-2.069,7.531-4.782,10.574-8.001l3.247-3.896c2.585-3.538,4.607-7.512,5.924-11.797
			L68.491,85.467z"/>
		<path fill="#FFF5DF" d="M34.118,86.716c0.966,0.418,1.954,0.795,2.958,1.138l47.826-57.392c-0.518-0.923-1.066-1.827-1.653-2.702
			L34.118,86.716z"/>
		<path fill="#FFF5DF" d="M59.359,11.112c-1.102-0.265-2.219-0.491-3.354-0.663L12.184,63.035c0.374,1.083,0.792,2.146,1.253,3.185
			L59.359,11.112z"/>
		<path fill="#FFF5DF" d="M65.882,13.285c-0.966-0.419-1.954-0.796-2.958-1.139L15.099,69.538c0.518,0.923,1.066,1.827,1.653,2.703
			L65.882,13.285z"/>
		<path fill="#FFF5DF" d="M51.913,10.049C51.278,10.019,50.642,10,50,10c-0.669,0-1.334,0.018-1.995,0.051L10.352,55.234
			c0.17,1.305,0.404,2.589,0.697,3.851L51.913,10.049z"/>
		<path fill="#FFF5DF" d="M38.25,11.758L10.282,45.318C10.103,46.855,10,48.415,10,50c0,0.112,0.007,0.222,0.008,0.334l33.11-39.732
			C41.458,10.89,39.832,11.271,38.25,11.758z"/>
		<path fill="#FFF5DF" d="M18.832,75.059c0.636,0.79,1.302,1.554,1.995,2.293l50.818-60.982c-0.85-0.547-1.715-1.072-2.608-1.557
			L18.832,75.059z"/>
		<path fill="#FFF5DF" d="M31.509,14.533c-3.962,2.07-7.532,4.783-10.575,8.003l-3.245,3.894c-2.585,3.537-4.607,7.512-5.925,11.798
			L31.509,14.533z"/>
	</g>
	<circle fill="none" stroke="#FFF5DF" stroke-width="3" stroke-miterlimit="10" cx="50" cy="150" r="40"/>
	<g opacity="0.3">
		<path fill="#FFF5DF" d="M40.641,188.888c1.102,0.265,2.219,0.491,3.354,0.662l43.821-52.585c-0.374-1.084-0.792-2.146-1.253-3.184
			L40.641,188.888z"/>
		<path fill="#FFF5DF" d="M28.355,183.63c0.85,0.548,1.715,1.073,2.608,1.558l50.205-60.246c-0.636-0.791-1.302-1.555-1.995-2.293
			L28.355,183.63z"/>
		<path fill="#FFF5DF" d="M61.75,188.243l27.968-33.562C89.897,153.145,90,151.585,90,150c0-0.112-0.007-0.222-0.008-0.334
			l-33.11,39.732C58.542,189.11,60.168,188.729,61.75,188.243z"/>
		<path fill="#FFF5DF" d="M23.261,179.744c0.743,0.668,1.516,1.305,2.308,1.917l51.171-61.405c-0.743-0.668-1.515-1.305-2.308-1.918
			L23.261,179.744z"/>
		<path fill="#FFF5DF" d="M48.088,189.951C48.722,189.981,49.358,190,50,190c0.669,0,1.334-0.018,1.995-0.051l37.653-45.184
			c-0.17-1.305-0.403-2.588-0.697-3.85L48.088,189.951z"/>
		<path fill="#FFF5DF" d="M68.491,185.467c3.961-2.069,7.531-4.782,10.574-8.001l3.247-3.896c2.585-3.538,4.607-7.512,5.924-11.797
			L68.491,185.467z"/>
		<path fill="#FFF5DF" d="M34.118,186.716c0.966,0.418,1.954,0.795,2.958,1.138l47.826-57.392c-0.518-0.923-1.066-1.827-1.653-2.702
			L34.118,186.716z"/>
		<path fill="#FFF5DF" d="M59.359,111.112c-1.102-0.265-2.219-0.491-3.354-0.663l-43.821,52.586
			c0.374,1.083,0.792,2.146,1.253,3.185L59.359,111.112z"/>
		<path fill="#FFF5DF" d="M65.882,113.285c-0.966-0.419-1.954-0.796-2.958-1.139l-47.826,57.392
			c0.518,0.923,1.066,1.827,1.653,2.703L65.882,113.285z"/>
		<path fill="#FFF5DF" d="M51.913,110.049C51.278,110.019,50.642,110,50,110c-0.669,0-1.334,0.018-1.995,0.051l-37.653,45.184
			c0.17,1.305,0.404,2.589,0.697,3.851L51.913,110.049z"/>
		<path fill="#FFF5DF" d="M38.25,111.758l-27.968,33.561C10.103,146.855,10,148.415,10,150c0,0.112,0.007,0.222,0.008,0.334
			l33.11-39.732C41.458,110.89,39.832,111.271,38.25,111.758z"/>
		<path fill="#FFF5DF" d="M18.832,175.059c0.636,0.79,1.302,1.554,1.995,2.293l50.818-60.982c-0.85-0.547-1.715-1.072-2.608-1.557
			L18.832,175.059z"/>
		<path fill="#FFF5DF" d="M31.509,114.533c-3.962,2.07-7.532,4.783-10.575,8.003l-3.245,3.894
			c-2.585,3.537-4.607,7.512-5.925,11.798L31.509,114.533z"/>
	</g>
	<circle fill="none" stroke="#FFF5DF" stroke-width="3" stroke-miterlimit="10" cx="50" cy="250" r="40"/>
	<g opacity="0.3">
		<path fill="#FFF5DF" d="M40.641,288.888c1.102,0.265,2.219,0.491,3.354,0.662l43.821-52.585c-0.374-1.084-0.792-2.146-1.253-3.184
			L40.641,288.888z"/>
		<path fill="#FFF5DF" d="M28.355,283.63c0.85,0.548,1.715,1.073,2.608,1.558l50.205-60.246c-0.636-0.791-1.302-1.555-1.995-2.293
			L28.355,283.63z"/>
		<path fill="#FFF5DF" d="M61.75,288.243l27.968-33.562C89.897,253.145,90,251.585,90,250c0-0.112-0.007-0.222-0.008-0.334
			l-33.11,39.732C58.542,289.11,60.168,288.729,61.75,288.243z"/>
		<path fill="#FFF5DF" d="M23.261,279.744c0.743,0.668,1.516,1.305,2.308,1.917l51.171-61.405c-0.743-0.668-1.515-1.305-2.308-1.918
			L23.261,279.744z"/>
		<path fill="#FFF5DF" d="M48.088,289.951C48.722,289.981,49.358,290,50,290c0.669,0,1.334-0.018,1.995-0.051l37.653-45.184
			c-0.17-1.305-0.403-2.588-0.697-3.85L48.088,289.951z"/>
		<path fill="#FFF5DF" d="M68.491,285.467c3.961-2.069,7.531-4.782,10.574-8.001l3.247-3.896c2.585-3.538,4.607-7.512,5.924-11.797
			L68.491,285.467z"/>
		<path fill="#FFF5DF" d="M34.118,286.716c0.966,0.418,1.954,0.795,2.958,1.138l47.826-57.392c-0.518-0.923-1.066-1.827-1.653-2.702
			L34.118,286.716z"/>
		<path fill="#FFF5DF" d="M59.359,211.112c-1.102-0.265-2.219-0.491-3.354-0.663l-43.821,52.586
			c0.374,1.083,0.792,2.146,1.253,3.185L59.359,211.112z"/>
		<path fill="#FFF5DF" d="M65.882,213.285c-0.966-0.419-1.954-0.796-2.958-1.139l-47.826,57.392
			c0.518,0.923,1.066,1.827,1.653,2.703L65.882,213.285z"/>
		<path fill="#FFF5DF" d="M51.913,210.049C51.278,210.019,50.642,210,50,210c-0.669,0-1.334,0.018-1.995,0.051l-37.653,45.184
			c0.17,1.305,0.404,2.589,0.697,3.851L51.913,210.049z"/>
		<path fill="#FFF5DF" d="M38.25,211.758l-27.968,33.561C10.103,246.855,10,248.415,10,250c0,0.112,0.007,0.222,0.008,0.334
			l33.11-39.732C41.458,210.89,39.832,211.271,38.25,211.758z"/>
		<path fill="#FFF5DF" d="M18.832,275.059c0.636,0.79,1.302,1.554,1.995,2.293l50.818-60.982c-0.85-0.547-1.715-1.072-2.608-1.557
			L18.832,275.059z"/>
		<path fill="#FFF5DF" d="M31.509,214.533c-3.962,2.07-7.532,4.783-10.575,8.003l-3.245,3.894
			c-2.585,3.537-4.607,7.512-5.925,11.798L31.509,214.533z"/>
	</g>
	<circle fill="none" stroke="#FFF5DF" stroke-width="3" stroke-miterlimit="10" cx="50" cy="350" r="40"/>
	<g opacity="0.3">
		<path fill="#FFF5DF" d="M40.641,388.888c1.102,0.265,2.219,0.491,3.354,0.662l43.821-52.585c-0.374-1.084-0.792-2.146-1.253-3.184
			L40.641,388.888z"/>
		<path fill="#FFF5DF" d="M28.355,383.63c0.85,0.548,1.715,1.073,2.608,1.558l50.205-60.246c-0.636-0.791-1.302-1.555-1.995-2.293
			L28.355,383.63z"/>
		<path fill="#FFF5DF" d="M61.75,388.243l27.968-33.562C89.897,353.145,90,351.585,90,350c0-0.112-0.007-0.222-0.008-0.334
			l-33.11,39.732C58.542,389.11,60.168,388.729,61.75,388.243z"/>
		<path fill="#FFF5DF" d="M23.261,379.744c0.743,0.668,1.516,1.305,2.308,1.917l51.171-61.405c-0.743-0.668-1.515-1.305-2.308-1.918
			L23.261,379.744z"/>
		<path fill="#FFF5DF" d="M48.088,389.951C48.722,389.981,49.358,390,50,390c0.669,0,1.334-0.018,1.995-0.051l37.653-45.184
			c-0.17-1.305-0.403-2.588-0.697-3.85L48.088,389.951z"/>
		<path fill="#FFF5DF" d="M68.491,385.467c3.961-2.069,7.531-4.782,10.574-8.001l3.247-3.896c2.585-3.538,4.607-7.512,5.924-11.797
			L68.491,385.467z"/>
		<path fill="#FFF5DF" d="M34.118,386.716c0.966,0.418,1.954,0.795,2.958,1.138l47.826-57.392c-0.518-0.923-1.066-1.827-1.653-2.702
			L34.118,386.716z"/>
		<path fill="#FFF5DF" d="M59.359,311.112c-1.102-0.265-2.219-0.491-3.354-0.663l-43.821,52.586
			c0.374,1.083,0.792,2.146,1.253,3.185L59.359,311.112z"/>
		<path fill="#FFF5DF" d="M65.882,313.285c-0.966-0.419-1.954-0.796-2.958-1.139l-47.826,57.392
			c0.518,0.923,1.066,1.827,1.653,2.703L65.882,313.285z"/>
		<path fill="#FFF5DF" d="M51.913,310.049C51.278,310.019,50.642,310,50,310c-0.669,0-1.334,0.018-1.995,0.051l-37.653,45.184
			c0.17,1.305,0.404,2.589,0.697,3.851L51.913,310.049z"/>
		<path fill="#FFF5DF" d="M38.25,311.758l-27.968,33.561C10.103,346.855,10,348.415,10,350c0,0.112,0.007,0.222,0.008,0.334
			l33.11-39.732C41.458,310.89,39.832,311.271,38.25,311.758z"/>
		<path fill="#FFF5DF" d="M18.832,375.059c0.636,0.79,1.302,1.554,1.995,2.293l50.818-60.982c-0.85-0.547-1.715-1.072-2.608-1.557
			L18.832,375.059z"/>
		<path fill="#FFF5DF" d="M31.509,314.533c-3.962,2.07-7.532,4.783-10.575,8.003l-3.245,3.894
			c-2.585,3.537-4.607,7.512-5.925,11.798L31.509,314.533z"/>
	</g>
	<path fill="#FEF200" d="M210.219,98.065l-22.032-18.208l0.97,8.758L90.501,59.019c-0.439,1.972-1.016,3.891-1.725,5.746
		l98.656,29.597l-5.63,6.777L210.219,98.065z"/>
	<path fill="#FEF200" d="M384.233,218.905l6.415,6.039l-103.971,45.668c0.934,1.76,1.745,3.593,2.421,5.491l103.962-45.665
		l0.107,8.81l19.644-20.762L384.233,218.905z"/>
	<path fill="#FEF200" d="M209.281,118.144l-28.002-5.729l4.969,7.276l-96.256,19.251c0.529,1.91,0.922,3.874,1.174,5.884
		l96.258-19.252l-1.788,8.628L209.281,118.144z"/>
	<path fill="#FEF200" d="M247,248.62c0.992-0.071,1.99-0.12,3-0.12s2.008,0.049,3,0.12v-74.23l8.109,3.445L250,151.5l-11.109,26.335
		L247,174.39V248.62z"/>
	<path fill="#FEF200" d="M412.083,182.938L392.627,162l-0.186,8.809l-103.462-46.558c-0.693,1.891-1.521,3.716-2.471,5.467
		l103.472,46.562l-6.47,5.982L412.083,182.938z"/>
	<path fill="#FEF200" d="M209.281,281.855l-23.645-16.059l1.789,8.629l-96.259-19.252c-0.251,2.01-0.645,3.974-1.174,5.884
		l96.255,19.251l-4.969,7.275L209.281,281.855z"/>
	<path fill="#FEF200" d="M210.208,301.938l-28.417-3.073l5.631,6.778l-98.646,29.594c0.709,1.855,1.286,3.773,1.725,5.745
		l98.645-29.593l-0.97,8.757L210.208,301.938z"/>
	<path fill="#FEF200" d="M798.594,203c-0.057-0.993-0.094-1.992-0.094-3s0.037-2.007,0.094-3H714.39l3.445-8.109L691.5,200
		l26.335,11.109L714.39,203H798.594z"/>
	<path fill="#FEF200" d="M1008.62,203c-0.071-0.992-0.12-1.99-0.12-3s0.049-2.008,0.12-3h-84.23l3.445-8.109L901.5,200
		l26.335,11.109L924.39,203H1008.62z"/>
	<g>
		<defs>
			<rect id="SVGID_23_" x="423" y="187.5" width="55" height="33"/>
		</defs>
		<clipPath id="SVGID_24_">
			<use xlink:href="#SVGID_23_"  overflow="visible"/>
		</clipPath>
		<path clip-path="url(#SVGID_24_)" fill="#FFF5DF" d="M445.979,189.985c0-1.065-0.799-1.784-1.971-1.784
			c-2.104,0-3.861,1.73-7.216,6.844l-0.533-2.637c-0.666-3.248-1.171-4.207-2.477-4.207c-1.091,0-2.636,0.399-5.591,1.385
			l-0.533,0.187l0.187,0.719l0.825-0.187c0.905-0.239,1.465-0.319,1.864-0.319c1.198,0,1.491,0.426,2.157,3.302l1.384,5.885
			l-3.94,5.592c-0.985,1.438-1.891,2.29-2.423,2.29c-0.293,0-0.772-0.133-1.251-0.426c-0.612-0.347-1.092-0.479-1.518-0.479
			c-0.959,0-1.625,0.719-1.625,1.678c0,1.225,0.905,1.997,2.37,1.997c1.491,0,2.077-0.427,4.447-3.302l4.313-5.646l1.438,5.752
			c0.612,2.476,1.251,3.195,2.769,3.195c1.837,0,3.062-1.146,5.832-5.459l-0.666-0.373c-0.373,0.479-0.612,0.719-1.038,1.278
			c-1.119,1.438-1.625,1.917-2.264,1.917c-0.666,0-1.091-0.612-1.438-1.943c-0.08-0.453-0.133-0.666-0.187-0.772
			c-1.145-4.5-1.704-7.083-1.704-7.802c2.104-3.675,3.808-5.778,4.687-5.778c0.266,0,0.719,0.133,1.145,0.373
			c0.56,0.346,0.906,0.426,1.332,0.426C445.313,191.689,445.979,190.971,445.979,189.985"/>
		<path clip-path="url(#SVGID_24_)" fill="#FFF5DF" d="M464.725,216.32l-0.533-0.479c-0.293,0.319-0.532,0.639-0.825,0.932
			c-1.119,1.305-1.837,1.891-2.37,1.891c-0.346,0-0.639-0.267-0.639-0.586c0-0.266,0.186-0.958,0.585-2.236l2.184-7.296
			c0.24-0.746,0.346-1.518,0.346-2.023c0-1.278-1.012-2.157-2.53-2.157c-2.529,0-4.979,2.157-8.973,7.802l2.583-7.722l-0.106-0.08
			l-6.311,1.092v0.586c1.97,0.026,2.476,0.239,2.476,0.958c0,0.213-0.026,0.399-0.08,0.586l-3.754,12.408h2.956
			c1.837-5.592,2.184-6.363,3.888-8.787c2.343-3.302,4.34-5.032,5.778-5.032c0.586,0,0.932,0.399,0.932,1.038
			c0,0.427-0.213,1.571-0.533,2.689l-1.73,5.832c-0.506,1.863-0.613,2.316-0.613,2.662c0,1.358,0.533,1.918,1.811,1.918
			C461.05,220.314,462.009,219.622,464.725,216.32"/>
		<path clip-path="url(#SVGID_24_)" fill="#FFF5DF" d="M477.133,199.146c0-1.012-0.932-1.944-1.944-1.944
			c-1.065,0-1.864,0.772-1.864,1.891s0.746,1.864,1.891,1.864C476.202,200.956,477.133,200.157,477.133,199.146 M475.536,216.347
			l-0.532-0.399c-1.678,2.023-2.503,2.77-3.195,2.77c-0.32,0-0.639-0.24-0.639-0.533c0-0.559,0.399-1.624,0.639-2.343l3.435-11.396
			l-0.106-0.08c-3.967,0.666-4.74,0.772-6.23,0.879v0.586c2.104,0.026,2.45,0.133,2.45,0.852c0,0.267-0.106,0.879-0.346,1.545
			l-1.891,6.284c-0.612,2.13-0.852,3.142-0.852,3.86c0,1.305,0.639,2.023,1.811,2.023
			C471.888,220.394,473.299,219.329,475.536,216.347z"/>
	</g>
</g>
<g id="group_6">
	<rect y="-400" fill="none" width="1100" height="400"/>
</g>
</svg>
