<?xml version="1.0" encoding="utf-8"?>
<!-- Generator: Adobe Illustrator 16.0.0, SVG Export Plug-In . SVG Version: 6.00 Build 0)  -->
<!DOCTYPE svg PUBLIC "-//W3C//DTD SVG 1.1//EN" "http://www.w3.org/Graphics/SVG/1.1/DTD/svg11.dtd">
<svg version="1.1" id="Layer_1" xmlns="http://www.w3.org/2000/svg" xmlns:xlink="http://www.w3.org/1999/xlink" x="0px" y="0px"
	 width="1100px" height="180px" viewBox="0 0 1100 180" enable-background="new 0 0 1100 180" xml:space="preserve">
<path display="none" fill="none" stroke="#FFF5DF" stroke-miterlimit="10" d="M-405.402,106.97V-640.01
	c412.546,0,746.979,334.433,746.979,746.979v0.001H-405.402z"/>
<path display="none" fill="none" stroke="#FFF5DF" stroke-miterlimit="10" d="M-405.402,106.97v-877.732
	c484.759,0,877.732,392.973,877.732,877.731v0.001H-405.402z"/>
<g id="group_1">
	<g>
		<defs>
			<rect id="SVGID_105_" x="427" y="76.5" width="46" height="34"/>
		</defs>
		<clipPath id="SVGID_2_">
			<use xlink:href="#SVGID_105_"  overflow="visible"/>
		</clipPath>
		<path clip-path="url(#SVGID_2_)" fill="#FFF5DF" d="M452.03,80.119c0-1.518-1.278-2.93-2.77-2.93
			c-2.237,0-3.781,1.305-7.562,6.604c-0.852-4.047-1.251-5.246-2.157-6.604l-7.988,1.172v1.277c0.905-0.105,1.251-0.105,1.677-0.105
			c1.544,0,2.21,0.879,2.689,3.221l1.438,7.35l-2.104,3.355c-0.959,1.57-1.438,1.971-2.317,1.971c-0.266,0-0.506-0.107-0.985-0.4
			c-0.772-0.426-1.305-0.611-1.917-0.611c-1.491,0-2.636,1.145-2.636,2.689c0,1.678,1.251,2.822,3.062,2.822
			c2.396,0,3.435-0.959,6.257-5.566l1.145-1.863c1.065,5.512,2.263,7.43,4.66,7.43c2.29,0,4.287-1.625,7.216-5.832l-1.012-0.691
			c-1.864,2.396-2.343,2.822-3.195,2.822c-0.905,0-1.384-0.666-1.784-2.529l-1.518-7.457c0.133-0.186,0.187-0.293,0.426-0.611
			c1.73-2.797,2.875-3.941,3.967-3.941c0.293,0,0.639,0.16,1.198,0.426c0.666,0.453,1.012,0.533,1.544,0.533
			C450.778,82.648,452.03,81.504,452.03,80.119"/>
		<path clip-path="url(#SVGID_2_)" fill="#FFF5DF" d="M472.32,106.32l-0.533-0.48c-0.266,0.32-0.533,0.641-0.799,0.934
			c-1.145,1.305-1.864,1.891-2.396,1.891c-0.346,0-0.639-0.268-0.639-0.586c0-0.268,0.187-0.959,0.586-2.238l2.184-7.295
			c0.266-0.746,0.373-1.518,0.373-2.023c0-1.279-1.039-2.158-2.556-2.158c-2.53,0-4.979,2.158-8.974,7.803l2.583-7.723l-0.106-0.08
			l-6.311,1.092v0.586c1.997,0.027,2.477,0.24,2.477,0.959c0,0.213-0.026,0.4-0.053,0.586l-3.781,12.408h2.956
			c1.837-5.592,2.21-6.363,3.914-8.787c2.316-3.301,4.313-5.031,5.778-5.031c0.56,0,0.906,0.398,0.906,1.037
			c0,0.426-0.213,1.572-0.533,2.689l-1.731,5.832c-0.506,1.863-0.612,2.316-0.612,2.662c0,1.357,0.533,1.918,1.811,1.918
			C468.646,110.314,469.604,109.621,472.32,106.32"/>
	</g>
	<g>
		<defs>
			<rect id="SVGID_107_" x="284.5" y="128" width="36" height="33"/>
		</defs>
		<clipPath id="SVGID_4_">
			<use xlink:href="#SVGID_107_"  overflow="visible"/>
		</clipPath>
		<path clip-path="url(#SVGID_4_)" fill="#FFF5DF" d="M319.649,129.74v-0.773h-10.625v0.773l1.278,0.133
			c1.145,0.105,1.624,0.373,1.624,0.904c0,1.146-2.609,3.676-6.87,6.711l-7.27,5.059l2.53-9.266
			c0.719-2.396,1.997-3.355,4.819-3.541v-0.773h-13.047v0.773c3.009,0.266,3.675,0.666,3.675,2.049c0,0.721-0.133,1.678-0.533,2.957
			l-5.885,21.143c-0.852,2.875-1.092,3.115-3.914,3.541v0.771h11.876v-0.771c-3.036-0.32-3.462-0.613-3.462-2.104
			c0-0.533,0.053-0.852,0.399-1.865l0.267-1.012l2.982-10.891l5.778,9.934c1.145,1.969,1.811,3.646,1.811,4.553
			c0,0.719-0.666,1.092-2.184,1.252l-1.384,0.133v0.771h13.154v-0.771c-3.009-0.293-3.302-0.426-4.66-2.664l-8.308-14.512
			l14.352-10.811C317.438,130.459,318.477,129.926,319.649,129.74"/>
	</g>
	<g>
		<defs>
			<rect id="SVGID_109_" x="683.501" y="127.5" width="36.999" height="33"/>
		</defs>
		<clipPath id="SVGID_6_">
			<use xlink:href="#SVGID_109_"  overflow="visible"/>
		</clipPath>
		<path clip-path="url(#SVGID_6_)" fill="#FFF5DF" d="M719.873,129.238v-0.771h-9.506v0.771c2.715,0.24,3.328,0.719,3.328,2.424
			c0,0.586-0.08,1.117-0.426,2.104l-0.08,0.398l-4.9,18.16l-9.932-23.857h-7.72v0.771c2.262,0.188,3.273,0.799,4.127,2.662
			l-5.699,19.945c-1.811,6.123-2.183,6.709-4.926,7.082v0.773h9.48v-0.773c-2.504-0.186-3.355-0.719-3.355-2.051
			c0-0.611,0.133-1.57,0.426-2.582l5.459-20.184l10.995,26.309h0.879l6.871-24.072C716.678,130.197,716.863,129.904,719.873,129.238
			"/>
	</g>
	<g>
		<defs>
			<rect id="SVGID_111_" x="225" y="69" width="50" height="42"/>
		</defs>
		<clipPath id="SVGID_8_">
			<use xlink:href="#SVGID_111_"  overflow="visible"/>
		</clipPath>
		<path clip-path="url(#SVGID_8_)" fill="#FFF5DF" d="M240.071,79.738l-5.086,18.906c-3.754-0.771-5.113-4.074-3.675-9.48
			C232.695,84,235.864,80.512,240.071,79.738 M247.713,89.164c-1.438,5.406-4.686,8.654-8.894,9.48l5.086-18.906
			C247.633,80.592,249.098,84.053,247.713,89.164z M251.92,89.164c1.598-5.883-1.385-10.145-7.642-10.863l2.45-9.027h-3.834
			l-2.45,9.027c-6.63,0.771-11.902,5.326-13.394,10.863c-1.625,6.205,1.305,10.227,7.615,10.865l-2.529,9.318h3.808l2.556-9.318
			C245.13,99.311,250.402,94.996,251.92,89.164z"/>
		<path clip-path="url(#SVGID_8_)" fill="#FFF5DF" d="M274.527,95.502v-0.586h-7.109v0.586h0.586c0.985,0,1.518,0.24,1.518,0.639
			c0,0.693-1.917,2.396-5.565,4.953l-1.651,1.172l4.66-16.217l-0.187-0.158c-2.316,0.451-3.781,0.691-6.071,0.957v0.561h0.639
			c1.332,0,1.917,0.238,1.971,0.879c-0.053,0.611-0.267,1.543-0.852,3.195l-0.346,1.17l-0.08,0.32l-4.953,17.121h2.956l1.864-6.363
			l1.624-1.145c0.639,1.57,1.651,3.754,2.343,5.006c1.251,2.236,1.944,2.902,3.089,2.902c1.571,0,2.529-0.879,4.34-3.861l-0.613-0.4
			c-0.186,0.32-0.399,0.641-0.559,0.934c-0.719,1.092-1.171,1.49-1.784,1.49c-0.826,0-1.598-1.145-3.169-4.58l-1.411-3.115
			C271.491,96.301,272.689,95.609,274.527,95.502"/>
	</g>
	<circle fill="none" stroke="#FFF5DF" stroke-width="3" stroke-miterlimit="10" cx="450" cy="90" r="40"/>
	<g opacity="0.3">
		<path fill="#FFF5DF" d="M440.641,128.888c1.102,0.265,2.219,0.491,3.354,0.662l43.821-52.585
			c-0.374-1.084-0.792-2.146-1.253-3.184L440.641,128.888z"/>
		<path fill="#FFF5DF" d="M428.355,123.63c0.85,0.548,1.715,1.073,2.608,1.558l50.205-60.246c-0.636-0.791-1.302-1.555-1.995-2.293
			L428.355,123.63z"/>
		<path fill="#FFF5DF" d="M461.75,128.243l27.968-33.562C489.897,93.145,490,91.585,490,90c0-0.112-0.007-0.222-0.008-0.334
			l-33.11,39.732C458.542,129.11,460.168,128.729,461.75,128.243z"/>
		<path fill="#FFF5DF" d="M423.261,119.744c0.743,0.668,1.516,1.305,2.308,1.917l51.171-61.405
			c-0.743-0.668-1.515-1.305-2.308-1.918L423.261,119.744z"/>
		<path fill="#FFF5DF" d="M448.088,129.951c0.634,0.03,1.271,0.049,1.912,0.049c0.669,0,1.334-0.018,1.995-0.051l37.653-45.184
			c-0.17-1.305-0.403-2.588-0.697-3.85L448.088,129.951z"/>
		<path fill="#FFF5DF" d="M468.491,125.467c3.961-2.069,7.531-4.782,10.574-8.001l3.247-3.896c2.585-3.538,4.607-7.512,5.924-11.797
			L468.491,125.467z"/>
		<path fill="#FFF5DF" d="M434.118,126.716c0.966,0.418,1.954,0.795,2.958,1.138l47.826-57.392
			c-0.518-0.923-1.066-1.827-1.653-2.702L434.118,126.716z"/>
		<path fill="#FFF5DF" d="M459.359,51.112c-1.102-0.265-2.219-0.491-3.354-0.663l-43.821,52.586
			c0.374,1.083,0.792,2.146,1.253,3.185L459.359,51.112z"/>
		<path fill="#FFF5DF" d="M465.882,53.285c-0.966-0.419-1.954-0.796-2.958-1.139l-47.826,57.392
			c0.518,0.923,1.066,1.827,1.653,2.703L465.882,53.285z"/>
		<path fill="#FFF5DF" d="M451.913,50.049C451.278,50.019,450.642,50,450,50c-0.669,0-1.334,0.018-1.995,0.051l-37.653,45.184
			c0.17,1.305,0.404,2.589,0.697,3.851L451.913,50.049z"/>
		<path fill="#FFF5DF" d="M438.25,51.758l-27.968,33.561C410.103,86.855,410,88.415,410,90c0,0.112,0.007,0.222,0.008,0.334
			l33.11-39.732C441.458,50.89,439.832,51.271,438.25,51.758z"/>
		<path fill="#FFF5DF" d="M418.832,115.059c0.636,0.79,1.302,1.554,1.995,2.293l50.818-60.982c-0.85-0.547-1.715-1.072-2.608-1.557
			L418.832,115.059z"/>
		<path fill="#FFF5DF" d="M431.509,54.533c-3.962,2.07-7.532,4.783-10.575,8.003l-3.245,3.894
			c-2.585,3.537-4.607,7.512-5.925,11.798L431.509,54.533z"/>
	</g>
	<g opacity="0.3">
		<path fill="#FFF5DF" d="M640.641,128.888c1.102,0.265,2.219,0.491,3.354,0.662l43.821-52.585
			c-0.374-1.084-0.792-2.146-1.253-3.184L640.641,128.888z"/>
		<path fill="#FFF5DF" d="M628.355,123.63c0.85,0.548,1.715,1.073,2.608,1.558l50.205-60.246c-0.636-0.791-1.302-1.555-1.995-2.293
			L628.355,123.63z"/>
		<path fill="#FFF5DF" d="M661.75,128.243l27.968-33.562C689.897,93.145,690,91.585,690,90c0-0.112-0.007-0.222-0.008-0.334
			l-33.11,39.732C658.542,129.11,660.168,128.729,661.75,128.243z"/>
		<path fill="#FFF5DF" d="M623.261,119.744c0.743,0.668,1.516,1.305,2.308,1.917l51.171-61.405
			c-0.743-0.668-1.515-1.305-2.308-1.918L623.261,119.744z"/>
		<path fill="#FFF5DF" d="M648.088,129.951c0.634,0.03,1.271,0.049,1.912,0.049c0.669,0,1.334-0.018,1.995-0.051l37.653-45.184
			c-0.17-1.305-0.403-2.588-0.697-3.85L648.088,129.951z"/>
		<path fill="#FFF5DF" d="M668.491,125.467c3.961-2.069,7.531-4.782,10.574-8.001l3.247-3.896c2.585-3.538,4.607-7.512,5.924-11.797
			L668.491,125.467z"/>
		<path fill="#FFF5DF" d="M634.118,126.716c0.966,0.418,1.954,0.795,2.958,1.138l47.826-57.392
			c-0.518-0.923-1.066-1.827-1.653-2.702L634.118,126.716z"/>
		<path fill="#FFF5DF" d="M659.359,51.112c-1.102-0.265-2.219-0.491-3.354-0.663l-43.821,52.586
			c0.374,1.083,0.792,2.146,1.253,3.185L659.359,51.112z"/>
		<path fill="#FFF5DF" d="M665.882,53.285c-0.966-0.419-1.954-0.796-2.958-1.139l-47.826,57.392
			c0.518,0.923,1.066,1.827,1.653,2.703L665.882,53.285z"/>
		<path fill="#FFF5DF" d="M651.913,50.049C651.278,50.019,650.642,50,650,50c-0.669,0-1.334,0.018-1.995,0.051l-37.653,45.184
			c0.17,1.305,0.404,2.589,0.697,3.851L651.913,50.049z"/>
		<path fill="#FFF5DF" d="M638.25,51.758l-27.968,33.561C610.103,86.855,610,88.415,610,90c0,0.112,0.007,0.222,0.008,0.334
			l33.11-39.732C641.458,50.89,639.832,51.271,638.25,51.758z"/>
		<path fill="#FFF5DF" d="M618.832,115.059c0.636,0.79,1.302,1.554,1.995,2.293l50.818-60.982c-0.85-0.547-1.715-1.072-2.608-1.557
			L618.832,115.059z"/>
		<path fill="#FFF5DF" d="M631.509,54.533c-3.962,2.07-7.532,4.783-10.575,8.003l-3.245,3.894
			c-2.585,3.537-4.607,7.512-5.925,11.798L631.509,54.533z"/>
	</g>
	<g>
		<defs>
			<rect id="SVGID_113_" x="630.5" y="77.5" width="39" height="33"/>
		</defs>
		<clipPath id="SVGID_10_">
			<use xlink:href="#SVGID_113_"  overflow="visible"/>
		</clipPath>
		<path clip-path="url(#SVGID_10_)" fill="#FFF5DF" d="M649.619,82.09c0-2.264-2.104-3.889-5.006-3.889
			c-7.189,0-13.873,6.977-13.873,14.459c0,4.527,2.583,7.162,7.03,7.162c3.595,0,6.125-1.438,9.027-5.111l-0.746-0.48
			c-2.636,2.822-4.5,3.861-6.843,3.861c-2.743,0-4.367-1.996-4.367-5.432c0-4.074,1.678-8.334,4.367-11.156
			c1.384-1.439,3.302-2.291,5.219-2.291c1.092,0,1.757,0.373,1.757,0.959c0,0.24-0.053,0.479-0.292,0.904
			c-0.32,0.613-0.426,0.906-0.426,1.385c0,1.146,0.719,1.811,1.864,1.811C648.687,84.271,649.619,83.367,649.619,82.09"/>
		<path clip-path="url(#SVGID_10_)" fill="#FFF5DF" d="M669.43,106.32l-0.533-0.48c-0.293,0.32-0.533,0.641-0.825,0.934
			c-1.119,1.305-1.837,1.891-2.37,1.891c-0.346,0-0.639-0.268-0.639-0.586c0-0.268,0.187-0.959,0.559-2.238l2.21-7.295
			c0.24-0.746,0.346-1.518,0.346-2.023c0-1.279-1.012-2.158-2.557-2.158c-2.503,0-4.953,2.158-8.947,7.803l2.583-7.723l-0.106-0.08
			l-6.311,1.092v0.586c1.97,0.027,2.476,0.24,2.476,0.959c0,0.213-0.026,0.4-0.08,0.586l-3.754,12.408h2.956
			c1.837-5.592,2.183-6.363,3.887-8.787c2.343-3.301,4.34-5.031,5.778-5.031c0.586,0,0.932,0.398,0.932,1.037
			c0,0.426-0.213,1.572-0.533,2.689l-1.73,5.832c-0.506,1.863-0.613,2.316-0.613,2.662c0,1.357,0.533,1.918,1.811,1.918
			C665.729,110.314,666.687,109.621,669.43,106.32"/>
	</g>
	<circle fill="none" stroke="#FFF5DF" stroke-width="3" stroke-miterlimit="10" cx="650" cy="90" r="40"/>
	<g>
		<path fill="#FEF200" d="M608.62,93c-0.071-0.992-0.12-1.99-0.12-3s0.049-2.008,0.12-3h-94.231l3.445-8.109L491.5,90l26.335,11.109
			L514.389,93H608.62z"/>
	</g>
	<circle fill="none" stroke="#FFF5DF" stroke-width="3" stroke-miterlimit="10" cx="250" cy="90" r="40"/>
	<g>
		<path fill="#FEF200" d="M291.5,87c0.071,0.992,0.12,1.99,0.12,3s-0.049,2.008-0.12,3h94.231l-3.445,8.109L408.62,90
			l-26.335-11.109L385.73,87H291.5z"/>
	</g>
	<rect x="370" y="10" fill="none" stroke="#FFF5DF" stroke-width="3" stroke-miterlimit="10" width="360" height="160"/>
	<rect x="170" y="10" fill="none" stroke="#FFF5DF" stroke-width="3" stroke-miterlimit="10" width="160" height="160"/>
	<rect fill="none" width="1100" height="180"/>
</g>
</svg>
