<?xml version="1.0" encoding="utf-8"?>
<!-- Generator: Adobe Illustrator 16.0.0, SVG Export Plug-In . SVG Version: 6.00 Build 0)  -->
<!DOCTYPE svg PUBLIC "-//W3C//DTD SVG 1.1//EN" "http://www.w3.org/Graphics/SVG/1.1/DTD/svg11.dtd">
<svg version="1.1" id="Layer_1" xmlns="http://www.w3.org/2000/svg" xmlns:xlink="http://www.w3.org/1999/xlink" x="0px" y="0px"
	 width="1100px" height="280px" viewBox="0 0 1100 280" enable-background="new 0 0 1100 280" xml:space="preserve">
<g id="group_2">
	<g>
		<defs>
			<rect id="SVGID_93_" x="506" y="228" width="35" height="33"/>
		</defs>
		<clipPath id="SVGID_2_">
			<use xlink:href="#SVGID_93_"  overflow="visible"/>
		</clipPath>
		<path clip-path="url(#SVGID_2_)" fill="#FFF5DF" d="M534.785,240.684c0,5.219-2.023,10.518-5.272,13.766
			c-2.822,2.877-6.684,4.314-11.662,4.314c-2.211,0-3.115-0.533-3.115-1.758c0-0.639,0.239-1.598,1.038-4.553l5.805-20.664
			c0.293-1.064,0.958-1.383,2.902-1.383c2.689,0,5.032,0.611,6.577,1.676C533.426,233.76,534.785,236.85,534.785,240.684
			 M540.083,241.828c0-7.855-5.458-12.861-13.952-12.861h-13.314v0.773c3.01,0.266,3.675,0.666,3.675,1.943
			c0,0.719-0.187,1.863-0.506,3.062l-5.885,21.143c-0.878,2.768-1.198,3.061-3.888,3.541v0.771h12.115
			c5.433,0,10.465-1.438,14.113-3.967C537.208,252.879,540.083,247.473,540.083,241.828z"/>
	</g>
	<g>
		<defs>
			<rect id="SVGID_95_" x="219" y="119" width="62" height="42"/>
		</defs>
		<clipPath id="SVGID_4_">
			<use xlink:href="#SVGID_95_"  overflow="visible"/>
		</clipPath>
		<path clip-path="url(#SVGID_4_)" fill="#FFF5DF" d="M234.071,129.738l-5.086,18.906c-3.754-0.771-5.113-4.074-3.675-9.48
			C226.695,134,229.864,130.512,234.071,129.738 M241.713,139.164c-1.438,5.406-4.686,8.654-8.894,9.48l5.086-18.906
			C241.633,130.592,243.098,134.053,241.713,139.164z M245.92,139.164c1.598-5.883-1.385-10.145-7.642-10.863l2.45-9.027h-3.834
			l-2.45,9.027c-6.63,0.771-11.902,5.326-13.394,10.863c-1.625,6.205,1.305,10.227,7.615,10.865l-2.529,9.318h3.808l2.556-9.318
			C239.13,149.311,244.402,144.996,245.92,139.164z"/>
		<path clip-path="url(#SVGID_4_)" fill="#FFF5DF" d="M268.527,145.502v-0.586h-7.109v0.586h0.586c0.985,0,1.518,0.24,1.518,0.639
			c0,0.693-1.917,2.396-5.565,4.953l-1.651,1.172l4.66-16.217l-0.187-0.158c-2.316,0.451-3.781,0.691-6.071,0.957v0.561h0.639
			c1.332,0,1.917,0.238,1.971,0.879c-0.053,0.611-0.267,1.543-0.852,3.195l-0.346,1.17l-0.08,0.32l-4.953,17.121h2.956l1.864-6.363
			l1.624-1.145c0.639,1.57,1.651,3.754,2.343,5.006c1.251,2.236,1.944,2.902,3.089,2.902c1.571,0,2.529-0.879,4.34-3.861l-0.613-0.4
			c-0.186,0.32-0.399,0.641-0.559,0.934c-0.719,1.092-1.171,1.49-1.784,1.49c-0.826,0-1.598-1.145-3.169-4.58l-1.411-3.115
			C265.491,146.301,266.689,145.609,268.527,145.502"/>
		<path clip-path="url(#SVGID_4_)" fill="#FFF5DF" d="M280.643,139.244c0-1.012-0.932-1.943-1.971-1.943
			c-1.065,0-1.837,0.773-1.837,1.891c0,1.119,0.745,1.863,1.89,1.863C279.71,141.055,280.643,140.256,280.643,139.244
			 M279.045,156.445l-0.533-0.398c-1.677,2.023-2.529,2.77-3.195,2.77c-0.319,0-0.639-0.24-0.639-0.533
			c0-0.559,0.399-1.623,0.639-2.344l3.435-11.396l-0.106-0.08c-3.968,0.666-4.74,0.773-6.231,0.879v0.586
			c2.077,0.027,2.45,0.133,2.45,0.854c0,0.266-0.106,0.877-0.373,1.543l-1.864,6.285c-0.612,2.129-0.852,3.141-0.852,3.861
			c0,1.305,0.639,2.023,1.811,2.023C275.397,160.494,276.808,159.428,279.045,156.445z"/>
	</g>
	<circle fill="none" stroke="#FFF5DF" stroke-width="3" stroke-miterlimit="10" cx="450" cy="140" r="40"/>
	<g opacity="0.3">
		<path fill="#FFF5DF" d="M440.641,178.888c1.102,0.265,2.219,0.491,3.354,0.662l43.821-52.585
			c-0.374-1.084-0.792-2.146-1.253-3.184L440.641,178.888z"/>
		<path fill="#FFF5DF" d="M428.355,173.63c0.85,0.548,1.715,1.073,2.608,1.558l50.205-60.246c-0.636-0.791-1.302-1.555-1.995-2.293
			L428.355,173.63z"/>
		<path fill="#FFF5DF" d="M461.75,178.243l27.968-33.562c0.179-1.537,0.282-3.097,0.282-4.682c0-0.112-0.007-0.222-0.008-0.334
			l-33.11,39.732C458.542,179.11,460.168,178.729,461.75,178.243z"/>
		<path fill="#FFF5DF" d="M423.261,169.744c0.743,0.668,1.516,1.305,2.308,1.917l51.171-61.405
			c-0.743-0.668-1.515-1.305-2.308-1.918L423.261,169.744z"/>
		<path fill="#FFF5DF" d="M448.088,179.951c0.634,0.03,1.271,0.049,1.912,0.049c0.669,0,1.334-0.018,1.995-0.051l37.653-45.184
			c-0.17-1.305-0.403-2.588-0.697-3.85L448.088,179.951z"/>
		<path fill="#FFF5DF" d="M468.491,175.467c3.961-2.069,7.531-4.782,10.574-8.001l3.247-3.896c2.585-3.538,4.607-7.512,5.924-11.797
			L468.491,175.467z"/>
		<path fill="#FFF5DF" d="M434.118,176.716c0.966,0.418,1.954,0.795,2.958,1.138l47.826-57.392
			c-0.518-0.923-1.066-1.827-1.653-2.702L434.118,176.716z"/>
		<path fill="#FFF5DF" d="M459.359,101.112c-1.102-0.265-2.219-0.491-3.354-0.663l-43.821,52.586
			c0.374,1.083,0.792,2.146,1.253,3.185L459.359,101.112z"/>
		<path fill="#FFF5DF" d="M465.882,103.285c-0.966-0.419-1.954-0.796-2.958-1.139l-47.826,57.392
			c0.518,0.923,1.066,1.827,1.653,2.703L465.882,103.285z"/>
		<path fill="#FFF5DF" d="M451.913,100.049c-0.634-0.03-1.271-0.049-1.913-0.049c-0.669,0-1.334,0.018-1.995,0.051l-37.653,45.184
			c0.17,1.305,0.404,2.589,0.697,3.851L451.913,100.049z"/>
		<path fill="#FFF5DF" d="M438.25,101.758l-27.968,33.561C410.103,136.855,410,138.415,410,140c0,0.112,0.007,0.222,0.008,0.334
			l33.11-39.732C441.458,100.89,439.832,101.271,438.25,101.758z"/>
		<path fill="#FFF5DF" d="M418.832,165.059c0.636,0.79,1.302,1.554,1.995,2.293l50.818-60.982c-0.85-0.547-1.715-1.072-2.608-1.557
			L418.832,165.059z"/>
		<path fill="#FFF5DF" d="M431.509,104.533c-3.962,2.07-7.532,4.783-10.575,8.003l-3.245,3.894
			c-2.585,3.537-4.607,7.512-5.925,11.798L431.509,104.533z"/>
	</g>
	<g opacity="0.15">
		<path fill="#FFF5DF" d="M640.641,178.888c1.102,0.265,2.219,0.491,3.354,0.662l43.821-52.585
			c-0.374-1.084-0.792-2.146-1.253-3.184L640.641,178.888z"/>
		<path fill="#FFF5DF" d="M628.355,173.63c0.85,0.548,1.715,1.073,2.608,1.558l50.205-60.246c-0.636-0.791-1.302-1.555-1.995-2.293
			L628.355,173.63z"/>
		<path fill="#FFF5DF" d="M661.75,178.243l27.968-33.562c0.179-1.537,0.282-3.097,0.282-4.682c0-0.112-0.007-0.222-0.008-0.334
			l-33.11,39.732C658.542,179.11,660.168,178.729,661.75,178.243z"/>
		<path fill="#FFF5DF" d="M623.261,169.744c0.743,0.668,1.516,1.305,2.308,1.917l51.171-61.405
			c-0.743-0.668-1.515-1.305-2.308-1.918L623.261,169.744z"/>
		<path fill="#FFF5DF" d="M648.088,179.951c0.634,0.03,1.271,0.049,1.912,0.049c0.669,0,1.334-0.018,1.995-0.051l37.653-45.184
			c-0.17-1.305-0.403-2.588-0.697-3.85L648.088,179.951z"/>
		<path fill="#FFF5DF" d="M668.491,175.467c3.961-2.069,7.531-4.782,10.574-8.001l3.247-3.896c2.585-3.538,4.607-7.512,5.924-11.797
			L668.491,175.467z"/>
		<path fill="#FFF5DF" d="M634.118,176.716c0.966,0.418,1.954,0.795,2.958,1.138l47.826-57.392
			c-0.518-0.923-1.066-1.827-1.653-2.702L634.118,176.716z"/>
		<path fill="#FFF5DF" d="M659.359,101.112c-1.102-0.265-2.219-0.491-3.354-0.663l-43.821,52.586
			c0.374,1.083,0.792,2.146,1.253,3.185L659.359,101.112z"/>
		<path fill="#FFF5DF" d="M665.882,103.285c-0.966-0.419-1.954-0.796-2.958-1.139l-47.826,57.392
			c0.518,0.923,1.066,1.827,1.653,2.703L665.882,103.285z"/>
		<path fill="#FFF5DF" d="M651.913,100.049c-0.634-0.03-1.271-0.049-1.913-0.049c-0.669,0-1.334,0.018-1.995,0.051l-37.653,45.184
			c0.17,1.305,0.404,2.589,0.697,3.851L651.913,100.049z"/>
		<path fill="#FFF5DF" d="M638.25,101.758l-27.968,33.561C610.103,136.855,610,138.415,610,140c0,0.112,0.007,0.222,0.008,0.334
			l33.11-39.732C641.458,100.89,639.832,101.271,638.25,101.758z"/>
		<path fill="#FFF5DF" d="M618.832,165.059c0.636,0.79,1.302,1.554,1.995,2.293l50.818-60.982c-0.85-0.547-1.715-1.072-2.608-1.557
			L618.832,165.059z"/>
		<path fill="#FFF5DF" d="M631.509,104.533c-3.962,2.07-7.532,4.783-10.575,8.003l-3.245,3.894
			c-2.585,3.537-4.607,7.512-5.925,11.798L631.509,104.533z"/>
	</g>
	<g opacity="0.5">
		<defs>
			<rect id="SVGID_97_" x="630.5" y="127.5" opacity="0.5" width="39" height="33"/>
		</defs>
		<clipPath id="SVGID_6_">
			<use xlink:href="#SVGID_97_"  overflow="visible"/>
		</clipPath>
		<path clip-path="url(#SVGID_6_)" fill="#FFF5DF" d="M649.619,132.09c0-2.264-2.104-3.889-5.006-3.889
			c-7.189,0-13.873,6.977-13.873,14.459c0,4.527,2.582,7.162,7.029,7.162c3.595,0,6.125-1.438,9.027-5.111l-0.746-0.48
			c-2.637,2.822-4.5,3.861-6.844,3.861c-2.742,0-4.367-1.996-4.367-5.432c0-4.074,1.678-8.334,4.367-11.156
			c1.385-1.439,3.303-2.291,5.219-2.291c1.092,0,1.758,0.373,1.758,0.959c0,0.24-0.053,0.479-0.293,0.904
			c-0.319,0.613-0.426,0.906-0.426,1.385c0,1.146,0.719,1.811,1.863,1.811C648.688,134.271,649.619,133.367,649.619,132.09"/>
		<path clip-path="url(#SVGID_6_)" fill="#FFF5DF" d="M669.43,156.32l-0.533-0.48c-0.293,0.32-0.532,0.641-0.824,0.934
			c-1.119,1.305-1.838,1.891-2.371,1.891c-0.346,0-0.639-0.268-0.639-0.586c0-0.268,0.187-0.959,0.559-2.238l2.211-7.295
			c0.24-0.746,0.346-1.518,0.346-2.023c0-1.279-1.012-2.158-2.557-2.158c-2.502,0-4.952,2.158-8.946,7.803l2.583-7.723l-0.106-0.08
			l-6.311,1.092v0.586c1.97,0.027,2.476,0.24,2.476,0.959c0,0.213-0.025,0.4-0.079,0.586l-3.755,12.408h2.956
			c1.837-5.592,2.183-6.363,3.888-8.787c2.343-3.301,4.34-5.031,5.777-5.031c0.586,0,0.933,0.398,0.933,1.037
			c0,0.426-0.213,1.572-0.532,2.689l-1.73,5.832c-0.507,1.863-0.613,2.316-0.613,2.662c0,1.357,0.533,1.918,1.811,1.918
			C665.729,160.314,666.688,159.621,669.43,156.32"/>
	</g>
	<circle opacity="0.5" fill="none" stroke="#FFF5DF" stroke-width="3" stroke-miterlimit="10" cx="650" cy="140" r="40"/>
	<g opacity="0.5">
		<path fill="#FEF200" d="M608.62,143c-0.071-0.992-0.12-1.99-0.12-3s0.049-2.008,0.12-3h-94.231l3.445-8.109L491.5,140
			l26.335,11.109L514.389,143H608.62z"/>
	</g>
	<circle fill="none" stroke="#FFF5DF" stroke-width="3" stroke-miterlimit="10" cx="250" cy="140" r="40"/>
	<g opacity="0.5">
		<path fill="#FEF200" d="M291.5,137c0.071,0.992,0.12,1.99,0.12,3s-0.049,2.008-0.12,3h94.231l-3.445,8.109L408.62,140
			l-26.335-11.109L385.73,137H291.5z"/>
	</g>
	<g opacity="0.5">
		<defs>
			<rect id="SVGID_99_" x="683.501" y="177.5" opacity="0.5" width="36.999" height="33"/>
		</defs>
		<clipPath id="SVGID_8_">
			<use xlink:href="#SVGID_99_"  overflow="visible"/>
		</clipPath>
		<path clip-path="url(#SVGID_8_)" fill="#FFF5DF" d="M719.873,179.238v-0.771h-9.506v0.771c2.715,0.24,3.328,0.719,3.328,2.424
			c0,0.586-0.08,1.117-0.426,2.104l-0.08,0.398l-4.9,18.16l-9.932-23.857h-7.72v0.771c2.262,0.188,3.273,0.799,4.127,2.662
			l-5.699,19.945c-1.811,6.123-2.183,6.709-4.926,7.082v0.773h9.48v-0.773c-2.504-0.186-3.355-0.719-3.355-2.051
			c0-0.611,0.133-1.57,0.426-2.582l5.459-20.184l10.995,26.309h0.879l6.871-24.072C716.678,180.197,716.863,179.904,719.873,179.238
			"/>
	</g>
	
		<rect x="370" y="60" opacity="0.5" fill="none" stroke="#FFF5DF" stroke-width="3" stroke-miterlimit="10" width="360" height="160"/>
	<g opacity="0.5">
		<defs>
			<rect id="SVGID_101_" x="284.5" y="178" opacity="0.5" width="36" height="33"/>
		</defs>
		<clipPath id="SVGID_10_">
			<use xlink:href="#SVGID_101_"  overflow="visible"/>
		</clipPath>
		<path clip-path="url(#SVGID_10_)" fill="#FFF5DF" d="M319.649,179.74v-0.773h-10.625v0.773l1.278,0.133
			c1.145,0.105,1.624,0.373,1.624,0.904c0,1.146-2.609,3.676-6.87,6.711l-7.27,5.059l2.53-9.266
			c0.719-2.396,1.997-3.355,4.819-3.541v-0.773h-13.047v0.773c3.009,0.266,3.675,0.666,3.675,2.049c0,0.721-0.133,1.678-0.533,2.957
			l-5.885,21.143c-0.852,2.875-1.092,3.115-3.914,3.541v0.771h11.876v-0.771c-3.036-0.32-3.462-0.613-3.462-2.104
			c0-0.533,0.053-0.852,0.399-1.865l0.267-1.012l2.982-10.891l5.778,9.934c1.145,1.969,1.811,3.646,1.811,4.553
			c0,0.719-0.666,1.092-2.184,1.252l-1.384,0.133v0.771h13.154v-0.771c-3.009-0.293-3.302-0.426-4.66-2.664l-8.308-14.512
			l14.352-10.811C317.438,180.459,318.477,179.926,319.649,179.74"/>
	</g>
	
		<rect x="170" y="60" opacity="0.5" fill="none" stroke="#FFF5DF" stroke-width="3" stroke-miterlimit="10" width="160" height="160"/>
	<rect x="150" y="10" fill="none" stroke="#FFF5DF" stroke-width="3" stroke-miterlimit="10" width="400" height="260"/>
	<rect fill="none" width="1100" height="280"/>
	<g>
		<defs>
			<rect id="SVGID_103_" x="423" y="127.5" width="55" height="33"/>
		</defs>
		<clipPath id="SVGID_12_">
			<use xlink:href="#SVGID_103_"  overflow="visible"/>
		</clipPath>
		<path clip-path="url(#SVGID_12_)" fill="#FFF5DF" d="M445.979,129.985c0-1.065-0.799-1.784-1.971-1.784
			c-2.104,0-3.861,1.73-7.216,6.844l-0.533-2.637c-0.666-3.248-1.171-4.207-2.477-4.207c-1.091,0-2.636,0.399-5.591,1.385
			l-0.533,0.187l0.187,0.719l0.825-0.187c0.905-0.239,1.465-0.319,1.864-0.319c1.198,0,1.491,0.426,2.157,3.302l1.384,5.885
			l-3.94,5.592c-0.985,1.438-1.891,2.29-2.423,2.29c-0.293,0-0.772-0.133-1.251-0.426c-0.612-0.347-1.092-0.479-1.518-0.479
			c-0.959,0-1.625,0.719-1.625,1.678c0,1.225,0.905,1.997,2.37,1.997c1.491,0,2.077-0.427,4.447-3.302l4.313-5.646l1.438,5.752
			c0.612,2.476,1.251,3.195,2.769,3.195c1.837,0,3.062-1.146,5.832-5.459l-0.666-0.373c-0.373,0.479-0.612,0.719-1.038,1.278
			c-1.119,1.438-1.625,1.917-2.264,1.917c-0.666,0-1.091-0.612-1.438-1.943c-0.08-0.453-0.133-0.666-0.187-0.772
			c-1.145-4.5-1.704-7.083-1.704-7.802c2.104-3.675,3.808-5.778,4.687-5.778c0.266,0,0.719,0.133,1.145,0.373
			c0.56,0.346,0.906,0.426,1.332,0.426C445.313,131.689,445.979,130.971,445.979,129.985"/>
		<path clip-path="url(#SVGID_12_)" fill="#FFF5DF" d="M464.725,156.32l-0.533-0.479c-0.293,0.319-0.532,0.639-0.825,0.932
			c-1.119,1.305-1.837,1.891-2.37,1.891c-0.346,0-0.639-0.267-0.639-0.586c0-0.266,0.186-0.958,0.585-2.236l2.184-7.296
			c0.24-0.746,0.346-1.518,0.346-2.023c0-1.278-1.012-2.157-2.53-2.157c-2.529,0-4.979,2.157-8.973,7.802l2.583-7.722l-0.106-0.08
			l-6.311,1.092v0.586c1.97,0.026,2.476,0.239,2.476,0.958c0,0.213-0.026,0.399-0.08,0.586l-3.754,12.408h2.956
			c1.837-5.592,2.184-6.363,3.888-8.787c2.343-3.302,4.34-5.032,5.778-5.032c0.586,0,0.932,0.399,0.932,1.038
			c0,0.427-0.213,1.571-0.533,2.689l-1.73,5.832c-0.506,1.863-0.613,2.316-0.613,2.662c0,1.358,0.533,1.918,1.811,1.918
			C461.05,160.314,462.009,159.622,464.725,156.32"/>
		<path clip-path="url(#SVGID_12_)" fill="#FFF5DF" d="M477.133,139.146c0-1.012-0.932-1.944-1.944-1.944
			c-1.065,0-1.864,0.772-1.864,1.891s0.746,1.864,1.891,1.864C476.202,140.956,477.133,140.157,477.133,139.146 M475.536,156.347
			l-0.532-0.399c-1.678,2.023-2.503,2.77-3.195,2.77c-0.32,0-0.639-0.24-0.639-0.533c0-0.559,0.399-1.624,0.639-2.343l3.435-11.396
			l-0.106-0.08c-3.967,0.666-4.74,0.772-6.23,0.879v0.586c2.104,0.026,2.45,0.133,2.45,0.852c0,0.267-0.106,0.879-0.346,1.545
			l-1.891,6.284c-0.612,2.13-0.852,3.142-0.852,3.86c0,1.305,0.639,2.023,1.811,2.023
			C471.888,160.394,473.299,159.329,475.536,156.347z"/>
	</g>
</g>
</svg>
